<svg width="11" height="11" viewBox="0 0 11 11" fill="none" xmlns="http://www.w3.org/2000/svg">
<path d="M0.324219 1.67969C0.660156 1.71094 0.957031 1.73437 1.21484 1.75C1.47266 1.76563 1.6875 1.78125 1.85938 1.79688C2.0625 1.8125 2.23438 1.82422 2.375 1.83203C2.51562 1.83984 2.6875 1.84375 2.89062 1.84375C3.0625 1.85156 3.27734 1.85547 3.53516 1.85547C3.79297 1.85547 4.09766 1.85547 4.44922 1.85547C4.22266 1.96484 4.04688 2.06641 3.92188 2.16016C3.80469 2.25391 3.71484 2.33594 3.65234 2.40625C3.57422 2.49219 3.52734 2.57031 3.51172 2.64062C3.50391 2.70313 3.51953 2.80859 3.55859 2.95703C3.59766 3.10547 3.65234 3.27344 3.72266 3.46094C3.79297 3.64063 3.87891 3.83203 3.98047 4.03516C4.08203 4.23828 4.1875 4.42188 4.29688 4.58594C4.41406 4.74219 4.53125 4.87109 4.64844 4.97266C4.76562 5.07422 4.87891 5.12109 4.98828 5.11328C5.09766 5.10547 5.23047 5.05469 5.38672 4.96094C5.54297 4.85938 5.70312 4.73438 5.86719 4.58594C6.03906 4.4375 6.20703 4.27734 6.37109 4.10547C6.53516 3.93359 6.67969 3.76562 6.80469 3.60156C6.9375 3.4375 7.04297 3.28906 7.12109 3.15625C7.20703 3.01562 7.25 2.91406 7.25 2.85156C7.24219 2.77344 7.21094 2.68359 7.15625 2.58203C7.10938 2.49609 7.03125 2.39453 6.92188 2.27734C6.8125 2.15234 6.66016 2.01172 6.46484 1.85547C7.10547 1.87891 7.57422 1.89062 7.87109 1.89062H8.30469H8.79688C8.97656 1.89062 9.21484 1.89062 9.51172 1.89062C9.80859 1.88281 10.1797 1.87109 10.625 1.85547C10.3203 2.05859 10.0547 2.24219 9.82812 2.40625C9.60938 2.5625 9.42188 2.69531 9.26562 2.80469C9.08594 2.9375 8.9375 3.05469 8.82031 3.15625C8.6875 3.26563 8.50391 3.4375 8.26953 3.67188C8.06641 3.875 7.79688 4.14844 7.46094 4.49219C7.125 4.82812 6.70312 5.26562 6.19531 5.80469C6.125 6.375 6.07812 6.83594 6.05469 7.1875C6.03906 7.53906 6.03125 7.81641 6.03125 8.01953C6.03125 8.25391 6.04688 8.42969 6.07812 8.54688C6.11719 8.64062 6.18359 8.75 6.27734 8.875C6.35547 8.98438 6.46484 9.11328 6.60547 9.26172C6.75391 9.41016 6.94922 9.57422 7.19141 9.75391C6.93359 9.69141 6.69141 9.64453 6.46484 9.61328C6.24609 9.58203 6.05078 9.55859 5.87891 9.54297C5.67578 9.51953 5.49219 9.50781 5.32812 9.50781C5.15625 9.50781 4.95312 9.51562 4.71875 9.53125C4.51562 9.54688 4.27344 9.56641 3.99219 9.58984C3.71094 9.61328 3.38281 9.64844 3.00781 9.69531C3.20312 9.5625 3.36328 9.42969 3.48828 9.29688C3.61328 9.16406 3.71094 9.04297 3.78125 8.93359C3.86719 8.80859 3.92969 8.69141 3.96875 8.58203C4 8.45703 4.02344 8.27734 4.03906 8.04297C4.05469 7.83984 4.05469 7.57031 4.03906 7.23438C4.03125 6.89844 4.00781 6.47266 3.96875 5.95703C3.5 5.20703 3.11719 4.61719 2.82031 4.1875C2.52344 3.75 2.29297 3.41797 2.12891 3.19141C1.93359 2.93359 1.79297 2.76172 1.70703 2.67578C1.62891 2.61328 1.52344 2.53516 1.39062 2.44141C1.28125 2.35547 1.14062 2.25391 0.96875 2.13672C0.789062 2.01172 0.574219 1.85938 0.324219 1.67969Z" fill="#BA4F07"/>
</svg>
